G04 EAGLE Gerber X2 export*
%TF.Part,Single*%
%TF.FileFunction,Copper,L1,Top,Mixed*%
%TF.FilePolarity,Positive*%
%TF.GenerationSoftware,Autodesk,EAGLE,9.0.1*%
%TF.CreationDate,2018-06-03T14:21:38Z*%
G75*
%MOMM*%
%FSLAX34Y34*%
%LPD*%
%AMOC8*
5,1,8,0,0,1.08239X$1,22.5*%
G01*
%ADD10C,0.508000*%
%ADD11C,0.756400*%


D10*
X310000Y495000D02*
X280000Y495000D01*
D11*
X280000Y495000D03*
D10*
X310000Y495000D02*
X310000Y485000D01*
X135000Y495000D02*
X105000Y495000D01*
D11*
X105000Y495000D03*
D10*
X135000Y495000D02*
X135000Y485000D01*
X470000Y495000D02*
X500000Y495000D01*
D11*
X470000Y495000D03*
D10*
X500000Y495000D02*
X500000Y485000D01*
X660000Y495000D02*
X690000Y495000D01*
D11*
X660000Y495000D03*
D10*
X690000Y495000D02*
X690000Y485000D01*
X175000Y485000D02*
X175000Y495000D01*
X135000Y445000D02*
X135000Y435000D01*
X350000Y485000D02*
X350000Y495000D01*
X310000Y445000D02*
X310000Y435000D01*
X540000Y485000D02*
X540000Y495000D01*
X500000Y445000D02*
X500000Y435000D01*
X730000Y485000D02*
X730000Y495000D01*
X730000Y445000D02*
X730000Y435000D01*
X540000Y435000D02*
X540000Y445000D01*
X350000Y445000D02*
X350000Y435000D01*
X175000Y435000D02*
X175000Y445000D01*
X30000Y405000D02*
X30000Y25000D01*
X830000Y25000D01*
X830000Y405000D01*
X45000Y405000D01*
X45000Y40000D01*
X815000Y40000D01*
X815000Y390000D01*
X60000Y390000D01*
X60000Y55000D01*
X800000Y55000D01*
X800000Y375000D01*
X75000Y375000D01*
X75000Y70000D01*
X785000Y70000D01*
X785000Y360000D01*
X90000Y360000D01*
X90000Y85000D01*
X770000Y85000D01*
X770000Y345000D01*
X105000Y345000D01*
D11*
X105000Y345000D03*
X30000Y405000D03*
X195000Y435000D03*
X375000Y435000D03*
X565000Y435000D03*
X770000Y435000D03*
D10*
X730000Y435000D01*
X195000Y435000D02*
X175000Y435000D01*
X350000Y435000D02*
X375000Y435000D01*
X540000Y435000D02*
X565000Y435000D01*
X690000Y435000D02*
X690000Y445000D01*
M02*
